<svg width="37" height="36" fill="none" xmlns="http://www.w3.org/2000/svg"><path fill-rule="evenodd" clip-rule="evenodd" d="M9.5 18c0-3.595 0-5.393.857-6.687a5.158 5.158 0 011.456-1.456C13.107 9 14.905 9 18.5 9s5.393 0 6.687.857a5.158 5.158 0 011.456 1.456c.857 1.294.857 3.092.857 6.687s0 5.393-.857 6.687a5.158 5.158 0 01-1.456 1.456C23.893 27 22.095 27 18.5 27s-5.393 0-6.687-.857a5.158 5.158 0 01-1.456-1.456C9.5 23.393 9.5 21.595 9.5 18zm13.66 0a4.66 4.66 0 11-9.32 0 4.66 4.66 0 019.32 0zm-4.66 3.083a3.083 3.083 0 100-6.166 3.083 3.083 0 000 6.166zm4.843-6.881a1.095 1.095 0 100-2.19 1.095 1.095 0 000 2.19z" fill="#000"/></svg>