<svg width="19" height="18" fill="none" xmlns="http://www.w3.org/2000/svg"><g clip-path="url(#clip0_115_567)"><path d="M17.85 12.906l-1.919-1.92a2.2 2.2 0 00-3.114 0l-.391.392a42.55 42.55 0 01-5.324-5.331l.392-.391a2.205 2.205 0 000-3.114L5.57.625a2.256 2.256 0 00-3.118 0L1.405 1.678a3.116 3.116 0 00-.392 3.909 42.4 42.4 0 0011.875 11.877 3.143 3.143 0 003.914-.391l1.052-1.053a2.199 2.199 0 000-3.113h-.004z" fill="#000"/></g><defs><clipPath id="clip0_115_567"><path fill="#fff" transform="translate(.5)" d="M0 0h18v18H0z"/></clipPath></defs></svg>