<svg width="37" height="36" viewBox="0 0 37 36" fill="none" xmlns="http://www.w3.org/2000/svg">
<g id="Social Media Icon Square/Instagram">
<path id="Instagram" fill-rule="evenodd" clip-rule="evenodd" d="M9.5 18C9.5 14.4049 9.5 12.6073 10.3567 11.3126C10.7392 10.7344 11.2344 10.2392 11.8126 9.85669C13.1073 9 14.9049 9 18.5 9C22.0951 9 23.8927 9 25.1874 9.85669C25.7656 10.2392 26.2608 10.7344 26.6433 11.3126C27.5 12.6073 27.5 14.4049 27.5 18C27.5 21.5951 27.5 23.3927 26.6433 24.6874C26.2608 25.2656 25.7656 25.7608 25.1874 26.1433C23.8927 27 22.0951 27 18.5 27C14.9049 27 13.1073 27 11.8126 26.1433C11.2344 25.7608 10.7392 25.2656 10.3567 24.6874C9.5 23.3927 9.5 21.5951 9.5 18ZM23.1593 18.0002C23.1593 20.5735 21.0732 22.6596 18.4998 22.6596C15.9265 22.6596 13.8404 20.5735 13.8404 18.0002C13.8404 15.4269 15.9265 13.3408 18.4998 13.3408C21.0732 13.3408 23.1593 15.4269 23.1593 18.0002ZM18.4998 21.0832C20.2025 21.0832 21.5828 19.7029 21.5828 18.0002C21.5828 16.2975 20.2025 14.9172 18.4998 14.9172C16.7971 14.9172 15.4168 16.2975 15.4168 18.0002C15.4168 19.7029 16.7971 21.0832 18.4998 21.0832ZM23.3433 14.2015C23.9479 14.2015 24.4381 13.7114 24.4381 13.1067C24.4381 12.5021 23.9479 12.0119 23.3433 12.0119C22.7386 12.0119 22.2485 12.5021 22.2485 13.1067C22.2485 13.7114 22.7386 14.2015 23.3433 14.2015Z" fill="black"/>
</g>
</svg>
