<svg width="19" height="18" viewBox="0 0 19 18" fill="none" xmlns="http://www.w3.org/2000/svg">
<g id="Filled Icons/Phone" clip-path="url(#clip0_115_567)">
<path id="Phone Icon" d="M17.8504 12.9061L15.9314 10.9863C15.727 10.7816 15.4843 10.6192 15.2171 10.5084C14.95 10.3975 14.6636 10.3405 14.3743 10.3405C14.0851 10.3405 13.7986 10.3975 13.5315 10.5084C13.2643 10.6192 13.0216 10.7816 12.8172 10.9863L12.4259 11.3776C10.4973 9.76165 8.71576 7.9778 7.10235 6.04702L7.49367 5.6557C7.90574 5.24242 8.13713 4.68262 8.13713 4.09902C8.13713 3.51541 7.90574 2.95561 7.49367 2.54234L5.57071 0.624853C5.1509 0.223798 4.59266 0 4.01207 0C3.43148 0 2.87324 0.223798 2.45343 0.624853L1.40469 1.67829C0.900729 2.18588 0.586762 2.85141 0.515504 3.56312C0.444247 4.27484 0.62004 4.9894 1.01336 5.58683C4.14011 10.2982 8.17767 14.3366 12.8884 17.4643C13.4879 17.854 14.2024 18.0276 14.9138 17.9565C15.6253 17.8853 16.2912 17.5736 16.8017 17.0729L17.8543 16.0195C18.059 15.8153 18.2214 15.5727 18.3322 15.3057C18.443 15.0386 18.5 14.7523 18.5 14.4632C18.5 14.1741 18.443 13.8878 18.3322 13.6207C18.2214 13.3537 18.059 13.1111 17.8543 12.9069L17.8504 12.9061Z" fill="black"/>
</g>
<defs>
<clipPath id="clip0_115_567">
<rect width="18" height="18" fill="white" transform="translate(0.5)"/>
</clipPath>
</defs>
</svg>
